# xmcd CD database file
#
# Track frame offsets:
#	187
#	20782
#	41404
#
# Disc length: 824 seconds
#
# Revision: 0
# Processed by: cddbd v1.5PL3 Copyright (c) Steve Scherf et al.
# Submitted via: CDex 1.40Release
#
DISCID=1e033603
DTITLE=シャ乱Ｑ - 恋をするだけ無駄なんて
DYEAR=1994
DGENRE=JPop
TTITLE0=恋をするだけ無駄なんて
TTITLE1=For You 〜翼をあげよう〜
TTITLE2=恋をするだけ無駄なんて （オリジナル・カラオケ）
EXTD=YEAR: 1994 ID3G: 146
EXTT0=
EXTT1=
EXTT2=
PLAYORDER=
